<?xml version="1.0" encoding="UTF-8" standalone="no"?>
<!-- Created with Inkscape (http://www.inkscape.org/) -->

<svg
   width="1024"
   height="1024"
   viewBox="0 0 270.93333 270.93333"
   version="1.1"
   id="svg1"
   xml:space="preserve"
   sodipodi:docname="wgo-easy.inkscape.svg"
   inkscape:version="1.4.2 (ebf0e940, 2025-05-08)"
   xmlns:inkscape="http://www.inkscape.org/namespaces/inkscape"
   xmlns:sodipodi="http://sodipodi.sourceforge.net/DTD/sodipodi-0.dtd"
   xmlns="http://www.w3.org/2000/svg"
   xmlns:svg="http://www.w3.org/2000/svg">
  <sodipodi:namedview
   id="namedview1"
   pagecolor="#ffffff"
   bordercolor="#000000"
   borderopacity="0.25"
   inkscape:showpageshadow="2"
   inkscape:pageopacity="0.0"
   inkscape:pagecheckerboard="0"
   inkscape:deskcolor="#d1d1d1"
   inkscape:document-units="mm"
   inkscape:zoom="1.2611551"
   inkscape:cx="490.42342"
   inkscape:cy="473.77202"
   inkscape:window-width="1512"
   inkscape:window-height="1186"
   inkscape:window-x="1767"
   inkscape:window-y="148"
   inkscape:window-maximized="0"
   inkscape:current-layer="logo" />
  <defs
   id="defs1">
    <linearGradient
   id="brandColor"
   inkscape:swatch="solid"
   inkscape:label="brandColor">
      <stop
   style="stop-color:#90141c;stop-opacity:1;"
   offset="0"
   id="stop28" />
    </linearGradient></defs>
  <g
   inkscape:groupmode="layer"
   id="logo"
   inkscape:label="logo"
   style="display:inline">
    <path
   d="m 233.80278,47.812585 c -6.06351,-0.262682 -12.59149,0.02334 -19.03708,1.185458 -14.66676,2.644358 -38.54897,9.323908 -53.27737,25.659932 -2.51355,2.787906 -3.32392,6.564451 -3.03702,9.629387 0.2869,3.064937 4.00891,4.245493 5.07723,6.634487 0.56876,2.135838 1.55307,6.426361 0.81034,11.884041 -2.32677,14.96321 -5.74781,20.01475 -10.21986,24.32231 -4.47205,4.30757 -9.36273,6.79791 -16.36102,11.44009 l 5.44005,10.05238 c 5.63525,-3.73803 13.23646,-7.43779 19.70208,-13.6656 6.35882,-6.12494 11.00006,-15.80803 12.30313,-31.87092 2.7807,3.92056 5.76872,8.89292 8.79068,15.31017 3.71201,7.8826 8.7967,23.56204 12.23078,34.43769 -1.65765,-0.82787 -3.30643,-1.6758 -5.30097,-2.3399 -10.8185,-3.60214 -26.60249,-2.92145 -43.59372,11.76775 l 6.92205,8.00572 c 14.82486,-12.81632 25.41031,-12.36909 33.32975,-9.73223 3.95972,1.31844 7.2234,3.36624 9.65626,5.09737 1.21643,0.86556 2.18648,1.62893 3.15278,2.30683 0.48316,0.33895 0.89718,0.6633 1.81022,1.06815 0.45652,0.20243 1.0448,0.48807 2.23656,0.53331 1.19176,0.0452 3.37723,-0.62696 4.52117,-2.0681 3.21208,-4.04656 3.73613,-8.73096 3.99821,-12.85192 0.26208,-4.12096 0.26751,-8.04057 1.11724,-11.73417 1.69945,-7.38722 0.28623,-13.62807 20.2297,-20.84233 1.86288,-0.67387 6.93722,-0.17486 9.09412,-1.12761 1.52569,-0.67393 0.89713,-7.93971 0.61544,-9.08295 -0.56328,-2.28648 -1.52599,-4.24867 -2.61328,-6.52725 -2.17457,-4.55717 -4.92978,-10.026725 -6.25181,-15.253846 -1.32204,-5.22712 -1.27686,-9.672127 1.30276,-13.539225 2.57962,-3.867099 8.44117,-8.000585 21.04678,-10.56628 0.93207,-0.18971 1.80422,-0.420525 2.78897,-0.906405 0.98475,-0.485879 2.31017,-1.278966 3.16054,-3.144511 0.85036,-1.865544 0.40377,-4.334345 -0.34004,-5.587772 -0.7438,-1.253427 -1.52766,-1.853231 -2.25412,-2.370915 -2.90588,-2.070735 -6.21676,-2.982341 -10.80244,-4.015776 -4.58568,-1.033435 -10.1846,-1.844683 -16.24811,-2.107365 z m -1.88107,11.234845 c 3.43557,0.148784 5.3388,1.141709 8.27263,1.592024 -7.02353,2.883254 -9.45131,5.360338 -12.5457,9.999128 -4.70317,7.050491 -4.28124,16.620318 -2.55355,23.451328 0.69628,2.752991 1.50038,3.814404 2.49877,6.2559 -6.70991,-4.660215 -14.34623,-9.651322 -20.56257,-12.582175 -7.10568,-3.350157 -17.28625,-5.490226 -26.07644,-7.073987 -4.95136,-0.892104 -4.64523,-0.968679 -7.60136,-1.377176 12.16232,-11.398978 30.7753,-17.642341 43.2891,-19.898528 5.48304,-0.988569 9.85615,-0.601364 15.27912,-0.366514 z M 179.2733,91.148442 c 8.40869,1.523545 18.3564,3.882351 23.24612,6.187736 7.73213,3.645512 18.51528,11.306722 25.95346,16.747812 -16.11152,7.62284 -22.63794,17.40694 -24.71322,26.42785 -0.0509,0.22138 -0.0434,0.40528 -0.0899,0.62476 -3.19896,-9.74364 -7.02191,-20.71434 -10.09964,-27.25001 -4.87384,-10.34979 -9.84079,-17.595341 -14.2968,-22.738148 z"
   style="baseline-shift:baseline;display:inline;overflow:visible;opacity:1;stroke-width:10.58333333;stroke-dasharray:none;enable-background:accumulate;stop-color:#000000;stop-opacity:1;stroke:none;stroke-opacity:1;fill:url(#brandColor)"
   id="wings"
   sodipodi:nodetypes="ssssscsccscscsccsssssssssssssssssssssscsscsscsssscscsss"
   inkscape:label="wings" />
    <path
   style="display:inline;fill:url(#brandColor);fill-opacity:1;stroke:url(#brandColor);stroke-width:1.32292;stroke-dasharray:none;stroke-opacity:1"
   d="M 48.660375,44.911383 C 48.558003,40.037186 50.107623,30.868767 54.418553,23.108624 57.255381,18.002023 62.112146,13.852285 65.569089,10.711403 69.716934,6.9427868 73.786874,3.1268071 78.652303,4.6671115 82.992174,6.0410337 78.366943,10.74202 76.145984,15.423355 70.329352,27.683648 75.931865,32.65432 72.531501,33.5879 66.7752,35.168309 48.805691,51.830289 48.660375,44.911383 Z"
   id="horn1"
   sodipodi:nodetypes="sssssss"
   inkscape:label="horn1" />
    <path
   style="fill:url(#brandColor);fill-opacity:1;stroke:url(#brandColor);stroke-width:1.32292;stroke-dasharray:none;stroke-opacity:1"
   d="m 98.379224,31.700257 c 2.325566,-0.74456 12.598966,-13.144308 17.945586,-17.663191 2.44168,-1.984384 7.60107,-6.1505754 12.494,-8.6433565 6.56152,-3.3428731 11.50167,-7.1243487 15.68842,-3.4622528 5.27595,4.6148089 -6.18228,13.3490713 -10.85857,18.5706103 -3.15752,3.525687 -4.67973,8.666256 -6.29299,12.976672 -2.46412,6.583816 -1.47821,12.044833 -5.42939,9.549681 -7.17643,-4.531883 -31.630455,-8.740159 -23.547056,-11.328163 z"
   id="horn2"
   sodipodi:nodetypes="ssssssss"
   inkscape:label="horn2" />
    <path
   id="eye2"
   style="fill:none;stroke:url(#brandColor);stroke-width:10.5833;stroke-dasharray:none"
   inkscape:label="eye2"
   d="M 118.14517,83.754348 C 117.18874,97.844715 108.34776,107.50627 95.591242,107.85405 81.738647,108.23171 70.854381,97.742534 72.30417,82.492336 73.637685,68.465213 83.427009,59.367423 96.83063,59.367422 c 13.40362,1e-6 22.26877,10.328907 21.31454,24.386926 z"
   sodipodi:nodetypes="sssss" />
    <path
   d="m 55.933537,97.585775 c -5.119301,-0.04448 -10.91607,1.607912 -15.090035,5.187795 -2.586835,2.21865 -4.124109,5.30339 -5.483903,8.76949 -1.359794,3.4661 -2.513006,6.93707 -1.578198,10.77144 0.404831,1.66053 1.539724,3.38337 2.962609,4.23798 1.422884,0.85462 2.120688,1.12647 2.861093,1.21307 0.670151,0.0784 1.645108,0.58813 1.720756,0.60546 0.901982,1.40874 1.330225,2.97732 2.478702,5.49989 0.579707,1.2733 1.341615,2.66891 2.648418,3.89692 1.306803,1.228 3.201862,2.13565 5.220869,2.36109 1.369108,0.15287 2.847377,-0.26167 3.790984,-0.83199 0.698738,-0.42231 0.99607,-0.77412 1.322399,-1.10742 0.152531,0.15861 0.19276,0.18328 0.40411,0.41806 0.507035,0.56324 1.160302,1.34157 2.279448,2.08566 1.119146,0.74409 2.915427,1.33837 4.665865,1.09192 1.970149,-0.27739 3.996667,-1.28963 5.15059,-2.8515 1.153924,-1.56186 1.387122,-3.11986 1.536857,-4.30465 0.299469,-2.36959 0.330913,-3.73667 0.984436,-4.74028 -0.14887,0.22862 2.212695,-1.04769 4.564695,-2.45823 1.176001,-0.70527 2.160607,-1.79435 3.334047,-2.97916 1.173441,-1.18481 2.679197,-3.33551 2.451129,-5.70229 -0.392455,-4.07273 -2.673003,-7.27391 -5.121134,-9.97097 -2.448132,-2.69706 -5.505777,-4.80187 -7.705072,-6.48094 -3.850557,-2.939757 -8.420078,-4.668154 -13.398665,-4.711345 z m -0.653318,8.002505 c 0.489823,0.004 1.474609,0.11839 1.938514,0.16547 -0.821122,0.30948 -1.803241,0.7919 -2.432927,0.9493 0.153623,-0.074 -0.685931,-0.28545 -1.80144,-0.61495 1.004265,-0.21453 1.533145,-0.50645 2.295853,-0.49982 z m 11.333289,4.86854 c 1.486443,1.21873 3.030712,2.40118 4.287077,3.7853 1.646424,1.81383 2.570889,3.5522 2.882511,4.82245 -0.346624,0.29844 -0.89969,0.72143 -1.751831,1.23248 -1.210595,0.72601 -2.721875,1.39054 -4.19716,2.48409 -4.960953,-2.44694 -8.534675,-3.83988 -11.85354,-3.78117 -3.461276,0.0612 -6.188262,1.11854 -10.468611,2.15801 -0.513683,-0.34461 -1.03764,-0.68759 -1.535307,-0.87075 -1.079496,-0.3973 -1.811176,-0.43174 -2.41794,-0.49403 0.04197,-0.88445 0.303278,-3.08846 1.191141,-5.35161 0.497641,-1.26849 1.178348,-2.50654 1.793173,-3.51968 0.766656,0.46882 0.773297,0.55074 1.748213,1.06454 2.814973,1.48354 5.9236,3.49389 10.306348,2.44739 3.992096,-0.95322 7.732671,-2.78814 10.015926,-3.97702 z m -14.398604,17.27544 0.238228,3.78529 c -0.190796,0.16929 -0.425046,0.33815 -0.556555,0.47078 l -5.17e-4,-5.2e-4 h -5.17e-4 c -0.0018,-0.001 -0.0044,-0.002 -0.0062,-0.003 l -5.17e-4,-5.2e-4 c -0.173942,-0.16345 -0.496979,-0.6065 -0.859379,-1.4025 -0.270107,-0.59328 -0.579607,-1.47902 -0.90227,-2.34921 0.615965,-0.15852 1.578661,-0.36572 2.087728,-0.50022 z m 7.966955,0.19533 c 0.801858,0.31062 2.230035,1.04743 3.3476,1.57613 -0.369875,1.56404 -0.452703,2.82522 -0.533301,3.70159 -0.459857,-0.51546 -1.034217,-1.21122 -1.994194,-1.9358 -0.169139,-0.12766 -0.433829,-0.22595 -0.633036,-0.34934 z"
   style="baseline-shift:baseline;display:inline;overflow:visible;opacity:1;vector-effect:none;enable-background:accumulate;stop-color:#000000;stop-opacity:1;stroke:none;fill:url(#brandColor)"
   id="mouth"
   sodipodi:nodetypes="cssssscsssscssssscssssscccccccscscccscscsscccccccssccccccscc"
   inkscape:label="mouth" />
    <path
   style="display:inline;fill:none;fill-opacity:1;stroke:url(#brandColor);stroke-width:7.9375;stroke-linecap:round;stroke-dasharray:none;stroke-opacity:1"
   d="m 97.389305,162.45916 c -8.424048,0.62464 -36.290105,16.67411 -26.717418,29.30298 2.449627,3.2317 10.290805,-5.63925 7.325745,-2.87285 -2.578676,2.40591 -1.706645,14.01262 2.15463,10.48587 9.343483,-8.53399 19.953028,-15.87752 28.441128,-15.08241"
   id="hand2"
   sodipodi:nodetypes="csssc"
   inkscape:label="hand2" />
    <path
   style="fill:none;fill-opacity:1;stroke:url(#brandColor);stroke-width:7.9375;stroke-linecap:round;stroke-dasharray:none;stroke-opacity:1"
   d="m 31.653757,159.17033 c 0.5893,-1.34697 -13.091839,4.72988 -18.831982,20.53487 -1.012334,2.78737 -2.39079,6.71211 0.400681,7.7131 2.869129,1.02884 2.779373,1.76468 4.507655,-1.50255 1.669979,-3.157 -2.118663,8.64922 1.001702,6.91174 3.002513,-1.67186 9.015311,-3.50596 9.015311,-3.50596"
   id="hand1"
   sodipodi:nodetypes="cssssc"
   inkscape:label="hand1" />
    <path
   id="pupil2"
   style="display:inline;stroke:url(#brandColor);stroke-width:7.9375;stroke-linecap:round;fill:url(#brandColor)"
   d="m 95.483863,84.223128 c 0,2.902516 -1.678779,5.454902 -4.364689,5.454902 -2.685911,0 -4.065541,-2.45267 -4.065541,-5.355186 0,-2.902516 1.977928,-5.056037 4.663838,-5.056037 2.685911,0 3.766392,2.053805 3.766392,4.956321 z"
   sodipodi:nodetypes="sssss"
   inkscape:label="pupil2" />
    <path
   id="pupil1"
   style="display:inline;stroke:url(#brandColor);stroke-width:7.9375;stroke-linecap:round"
   d="m 45.656878,83.82625 c 1e-6,2.902517 -0.881049,5.654336 -3.566959,5.654336 -2.685911,0 -3.467244,-1.854373 -3.467244,-4.756889 0,-2.902516 0.980766,-5.355187 3.666676,-5.355187 2.68591,0 3.367527,1.555224 3.367527,4.45774 z"
   sodipodi:nodetypes="sssss"
   inkscape:label="pupil1" />
    <path
   id="body"
   style="display:inline;fill:none;fill-opacity:1;stroke:url(#brandColor);stroke-width:10.5833;stroke-linecap:round;stroke-dasharray:none;stroke-opacity:1"
   inkscape:label="body"
   d="m 123.21528,195.28777 c -23.832323,10.30082 -30.364187,25.88214 -17.21639,45.40398 6.68614,9.92759 10.94179,8.82855 7.51403,7.23197 -9.83716,-4.58192 -31.104157,5.31842 -25.710791,13.95174 1.553555,2.48682 9.241158,5.97168 13.722411,-1.49574 1.80619,-3.00976 -5.857123,5.17645 -1.750334,5.24058 12.626604,0.19717 30.116634,0.87463 42.061134,-2.11476 9.46701,-2.36933 13.7245,-7.79994 14.73518,-12.0257 1.15945,-4.84776 3.62717,1.21445 13.62427,3.52914 11.27587,2.61076 24.14092,-0.90789 43.52717,-11.02169 12.62109,-6.58441 21.97123,-28.51956 22.73735,-40.84461 0.25338,-4.07624 0.18972,6.2819 4.56959,2.86617 10.49626,-8.18569 12.06099,-22.37586 5.76208,-34.00329 -9.4809,-17.50122 19.28994,-31.71197 -9.0848,-15.97738 -22.8606,12.67684 -9.80416,49.87275 -17.52501,37.18268 -1.43689,-2.36168 -4.89324,-11.43742 -6.65483,-6.56581 -1.38675,3.835 -2.60552,13.54346 5.6487,20.71301 -2.45487,7.85033 -11.52116,13.70001 -20.20833,16.13222 -6.30956,1.76654 -12.55577,1.27481 -15.26023,0.64872 -3.33718,-0.77256 -4.54732,-1.824 -6.12657,-2.12502 -6.28917,-1.19878 -5.77653,4.35906 -4.47222,-3.13867 0.88124,-5.06574 -2.09823,-12.2632 -6.56028,-21.86578 -5.41823,-11.66033 -14.46379,-23.0549 -18.11874,-28.47356 -4.77081,-7.07297 -6.03997,-16.51839 -11.07271,-24.71839 -1.74967,-2.85078 8.7712,-14.57567 10.69857,-24.71632 3.4214,-18.00133 3.41014,-37.146035 -2.24689,-48.298866 C 140.8227,60.974611 134.04424,51.827236 124.12886,45.84113 113.81302,39.613256 102.37304,35.388678 87.957422,34.983911 78.697815,34.723916 56.444628,40.119618 45.022575,53.923324 c -1.576351,1.905041 -2.985507,3.946998 -4.250387,6.091617 -0.532463,-0.03852 -1.074642,-0.05788 -1.625223,-0.05788 -11.457782,0 -20.387972,10.096959 -20.746021,23.28695 -0.256774,9.4592 3.360017,17.759479 9.850562,21.524789 -0.871149,5.07719 -1.751779,9.39369 -2.999301,12.40183 -5.263063,12.69078 1.168014,15.87834 6.767546,19.43757 3.556299,2.26049 4.089855,5.00937 0.741557,17.6351 -16.09219,60.68026 -1.7183,103.91933 56.041788,103.80048 M 40.785804,243.04344 c -2.880264,-2.61142 -22.783152,8.28344 -15.284176,15.02482 4.603897,4.13879 6.995642,-0.19235 11.462357,-3.1822 2.939038,-1.96729 -6.072238,4.19611 -0.640827,4.85204 12.169659,1.46969 32.21442,-2.93248 32.107068,-3.79129 M 42.002284,59.523072 c -0.130163,-1.041307 16.011456,5.522105 17.301914,18.090364 0.553337,5.389161 -0.739051,12.782322 -4.232905,18.432266 -7.146616,10.755998 -14.871078,11.706758 -27.192084,8.741668"
   sodipodi:nodetypes="cssssssssssssssscsssssssssssscsscsssccsssccscc" />
    <path
   style="fill:none;fill-opacity:1;stroke:url(#brandColor);stroke-width:10.5833;stroke-linecap:round;stroke-dasharray:none;stroke-opacity:1"
   d="m 120.78047,52.896556 c 1.09068,-2.122379 6.16154,-7.403909 12.52711,-9.561583 19.96815,-6.7684 24.42775,-19.987237 26.2637,-11.156235 2.77492,13.347514 -22.70145,34.823565 -22.70145,34.823565"
   id="ear2"
   sodipodi:nodetypes="cssc"
   inkscape:label="ear2" />
    <path
   style="display:inline;fill:none;fill-opacity:1;stroke:url(#brandColor);stroke-width:10.5833;stroke-linecap:round;stroke-dasharray:none;stroke-opacity:1"
   d="m 30.393092,62.023912 c 0,0 7.990211,-2.013293 0.27505,-10.039348 -4.129921,-4.296342 15.54036,1.237727 15.54036,1.237727"
   id="ear1"
   sodipodi:nodetypes="csc"
   inkscape:label="ear1" />
  </g>
</svg>
