<?xml version="1.0" encoding="UTF-8"?>
<!-- Created with Inkscape (http://www.inkscape.org/) -->
<svg width="1024" height="1024" version="1.1" viewBox="0 0 270.93 270.93" xml:space="preserve" xmlns="http://www.w3.org/2000/svg">
  
  <defs>
    <linearGradient id="brandColor">
      <stop stop-color="#e22834" offset="0"/>
    </linearGradient></defs>
  <g id="logo"><g fill="url(#brandColor)">
    <path id="wings" d="m233.8 47.813c-6.0635-0.26268-12.591 0.02334-19.037 1.1855-14.667 2.6444-38.549 9.3239-53.277 25.66-2.5136 2.7879-3.3239 6.5645-3.037 9.6294 0.2869 3.0649 4.0089 4.2455 5.0772 6.6345 0.56876 2.1358 1.5531 6.4264 0.81034 11.884-2.3268 14.963-5.7478 20.015-10.22 24.322-4.472 4.3076-9.3627 6.7979-16.361 11.44l5.44 10.052c5.6352-3.738 13.236-7.4378 19.702-13.666 6.3588-6.1249 11-15.808 12.303-31.871 2.7807 3.9206 5.7687 8.8929 8.7907 15.31 3.712 7.8826 8.7967 23.562 12.231 34.438-1.6576-0.82787-3.3064-1.6758-5.301-2.3399-10.818-3.6021-26.602-2.9214-43.594 11.768l6.922 8.0057c14.825-12.816 25.41-12.369 33.33-9.7322 3.9597 1.3184 7.2234 3.3662 9.6563 5.0974 1.2164 0.86556 2.1865 1.6289 3.1528 2.3068 0.48316 0.33895 0.89718 0.6633 1.8102 1.0682 0.45652 0.20243 1.0448 0.48807 2.2366 0.53331 1.1918 0.0452 3.3772-0.62696 4.5212-2.0681 3.2121-4.0466 3.7361-8.731 3.9982-12.852s0.26751-8.0406 1.1172-11.734c1.6994-7.3872 0.28623-13.628 20.23-20.842 1.8629-0.67387 6.9372-0.17486 9.0941-1.1276 1.5257-0.67393 0.89713-7.9397 0.61544-9.083-0.56328-2.2865-1.526-4.2487-2.6133-6.5272-2.1746-4.5572-4.9298-10.027-6.2518-15.254-1.322-5.2271-1.2769-9.6721 1.3028-13.539 2.5796-3.8671 8.4412-8.0006 21.047-10.566 0.93207-0.18971 1.8042-0.42052 2.789-0.9064 0.98475-0.48588 2.3102-1.279 3.1605-3.1445 0.85036-1.8655 0.40377-4.3343-0.34004-5.5878-0.7438-1.2534-1.5277-1.8532-2.2541-2.3709-2.9059-2.0707-6.2168-2.9823-10.802-4.0158s-10.185-1.8447-16.248-2.1074zm-1.8811 11.235c3.4356 0.14878 5.3388 1.1417 8.2726 1.592-7.0235 2.8833-9.4513 5.3603-12.546 9.9991-4.7032 7.0505-4.2812 16.62-2.5536 23.451 0.69628 2.753 1.5004 3.8144 2.4988 6.2559-6.7099-4.6602-14.346-9.6513-20.563-12.582-7.1057-3.3502-17.286-5.4902-26.076-7.074-4.9514-0.8921-4.6452-0.96868-7.6014-1.3772 12.162-11.399 30.775-17.642 43.289-19.899 5.483-0.98857 9.8562-0.60136 15.279-0.36651zm-52.648 32.101c8.4087 1.5235 18.356 3.8824 23.246 6.1877 7.7321 3.6455 18.515 11.307 25.953 16.748-16.112 7.6228-22.638 17.407-24.713 26.428-0.0509 0.22138-0.0434 0.40528-0.0899 0.62476-3.199-9.7436-7.0219-20.714-10.1-27.25-4.8738-10.35-9.8408-17.595-14.297-22.738z" stop-color="#000000"/>
    <path d="m48.66 44.911c-0.10237-4.8742 1.4472-14.043 5.7582-21.803 2.8368-5.1066 7.6936-9.2563 11.151-12.397 4.1478-3.7686 8.2178-7.5846 13.083-6.0443 4.3399 1.3739-0.28536 6.0749-2.5063 10.756-5.8166 12.26-0.21412 17.231-3.6145 18.165-5.7563 1.5804-23.726 18.242-23.871 11.323z" stroke="url(#brandColor)" stroke-width="1.3229"/>
    <path d="m98.379 31.7c2.3256-0.74456 12.599-13.144 17.946-17.663 2.4417-1.9844 7.6011-6.1506 12.494-8.6434 6.5615-3.3429 11.502-7.1243 15.688-3.4623 5.276 4.6148-6.1823 13.349-10.859 18.571-3.1575 3.5257-4.6797 8.6663-6.293 12.977-2.4641 6.5838-1.4782 12.045-5.4294 9.5497-7.1764-4.5319-31.63-8.7402-23.547-11.328z" stroke="url(#brandColor)" stroke-width="1.3229"/>
    </g><path d="m118.15 83.754c-0.95643 14.09-9.7974 23.752-22.554 24.1-13.853 0.37766-24.737-10.112-23.287-25.362 1.3335-14.027 11.123-23.125 24.526-23.125 13.404 1e-6 22.269 10.329 21.315 24.387z" fill="none" stroke="url(#brandColor)" stroke-width="10.583"/>
    <path id="mouth" d="m55.934 97.586c-5.1193-0.04448-10.916 1.6079-15.09 5.1878-2.5868 2.2186-4.1241 5.3034-5.4839 8.7695s-2.513 6.9371-1.5782 10.771c0.40483 1.6605 1.5397 3.3834 2.9626 4.238 1.4229 0.85462 2.1207 1.1265 2.8611 1.2131 0.67015 0.0784 1.6451 0.58813 1.7208 0.60546 0.90198 1.4087 1.3302 2.9773 2.4787 5.4999 0.57971 1.2733 1.3416 2.6689 2.6484 3.8969 1.3068 1.228 3.2019 2.1356 5.2209 2.3611 1.3691 0.15287 2.8474-0.26167 3.791-0.83199 0.69874-0.42231 0.99607-0.77412 1.3224-1.1074 0.15253 0.15861 0.19276 0.18328 0.40411 0.41806 0.50704 0.56324 1.1603 1.3416 2.2794 2.0857s2.9154 1.3384 4.6659 1.0919c1.9701-0.27739 3.9967-1.2896 5.1506-2.8515 1.1539-1.5619 1.3871-3.1199 1.5369-4.3046 0.29947-2.3696 0.33091-3.7367 0.98444-4.7403-0.14887 0.22862 2.2127-1.0477 4.5647-2.4582 1.176-0.70527 2.1606-1.7944 3.334-2.9792 1.1734-1.1848 2.6792-3.3355 2.4511-5.7023-0.39246-4.0727-2.673-7.2739-5.1211-9.971-2.4481-2.6971-5.5058-4.8019-7.7051-6.4809-3.8506-2.9398-8.4201-4.6682-13.399-4.7113zm-0.65332 8.0025c0.48982 4e-3 1.4746 0.11839 1.9385 0.16547-0.82112 0.30948-1.8032 0.7919-2.4329 0.9493 0.15362-0.074-0.68593-0.28545-1.8014-0.61495 1.0043-0.21453 1.5331-0.50645 2.2959-0.49982zm11.333 4.8685c1.4864 1.2187 3.0307 2.4012 4.2871 3.7853 1.6464 1.8138 2.5709 3.5522 2.8825 4.8224-0.34662 0.29844-0.89969 0.72143-1.7518 1.2325-1.2106 0.72601-2.7219 1.3905-4.1972 2.4841-4.961-2.4469-8.5347-3.8399-11.854-3.7812-3.4613 0.0612-6.1883 1.1185-10.469 2.158-0.51368-0.34461-1.0376-0.68759-1.5353-0.87075-1.0795-0.3973-1.8112-0.43174-2.4179-0.49403 0.04197-0.88445 0.30328-3.0885 1.1911-5.3516 0.49764-1.2685 1.1783-2.5065 1.7932-3.5197 0.76666 0.46882 0.7733 0.55074 1.7482 1.0645 2.815 1.4835 5.9236 3.4939 10.306 2.4474 3.9921-0.95322 7.7327-2.7881 10.016-3.977zm-14.399 17.275 0.23823 3.7853c-0.1908 0.16929-0.42505 0.33815-0.55656 0.47078l-5.17e-4 -5.2e-4h-5.17e-4c-0.0018-1e-3 -0.0044-2e-3 -0.0062-3e-3l-5.17e-4 -5.2e-4c-0.17394-0.16345-0.49698-0.6065-0.85938-1.4025-0.27011-0.59328-0.57961-1.479-0.90227-2.3492 0.61596-0.15852 1.5787-0.36572 2.0877-0.50022zm7.967 0.19533c0.80186 0.31062 2.23 1.0474 3.3476 1.5761-0.36988 1.564-0.4527 2.8252-0.5333 3.7016-0.45986-0.51546-1.0342-1.2112-1.9942-1.9358-0.16914-0.12766-0.43383-0.22595-0.63304-0.34934z" fill="url(#brandColor)" stop-color="#000000"/><g stroke="url(#brandColor)" stroke-linecap="round" stroke-width="7.9375">
    <path d="m97.389 162.46c-8.424 0.62464-36.29 16.674-26.717 29.303 2.4496 3.2317 10.291-5.6392 7.3257-2.8728-2.5787 2.4059-1.7066 14.013 2.1546 10.486 9.3435-8.534 19.953-15.878 28.441-15.082" fill="none"/>
    <path d="m31.654 159.17c0.5893-1.347-13.092 4.7299-18.832 20.535-1.0123 2.7874-2.3908 6.7121 0.40068 7.7131 2.8691 1.0288 2.7794 1.7647 4.5077-1.5026 1.67-3.157-2.1187 8.6492 1.0017 6.9117 3.0025-1.6719 9.0153-3.506 9.0153-3.506" fill="none"/>
    <path d="m95.484 84.223c0 2.9025-1.6788 5.4549-4.3647 5.4549-2.6859 0-4.0655-2.4527-4.0655-5.3552s1.9779-5.056 4.6638-5.056c2.6859 0 3.7664 2.0538 3.7664 4.9563z" fill="url(#brandColor)"/>
    <path d="m45.657 83.826c1e-6 2.9025-0.88105 5.6543-3.567 5.6543-2.6859 0-3.4672-1.8544-3.4672-4.7569s0.98077-5.3552 3.6667-5.3552 3.3675 1.5552 3.3675 4.4577z"/></g><g fill="none" stroke="url(#brandColor)" stroke-linecap="round" stroke-width="10.583">
    <path id="body" d="m123.22 195.29c-23.832 10.301-30.364 25.882-17.216 45.404 6.6861 9.9276 10.942 8.8286 7.514 7.232-9.8372-4.5819-31.104 5.3184-25.711 13.952 1.5536 2.4868 9.2412 5.9717 13.722-1.4957 1.8062-3.0098-5.8571 5.1764-1.7503 5.2406 12.627 0.19717 30.117 0.87463 42.061-2.1148 9.467-2.3693 13.724-7.7999 14.735-12.026 1.1594-4.8478 3.6272 1.2144 13.624 3.5291 11.276 2.6108 24.141-0.90789 43.527-11.022 12.621-6.5844 21.971-28.52 22.737-40.845 0.25338-4.0762 0.18972 6.2819 4.5696 2.8662 10.496-8.1857 12.061-22.376 5.7621-34.003-9.4809-17.501 19.29-31.712-9.0848-15.977-22.861 12.677-9.8042 49.873-17.525 37.183-1.4369-2.3617-4.8932-11.437-6.6548-6.5658-1.3868 3.835-2.6055 13.543 5.6487 20.713-2.4549 7.8503-11.521 13.7-20.208 16.132-6.3096 1.7665-12.556 1.2748-15.26 0.64872-3.3372-0.77256-4.5473-1.824-6.1266-2.125-6.2892-1.1988-5.7765 4.3591-4.4722-3.1387 0.88124-5.0657-2.0982-12.263-6.5603-21.866-5.4182-11.66-14.464-23.055-18.119-28.474-4.7708-7.073-6.04-16.518-11.073-24.718-1.7497-2.8508 8.7712-14.576 10.699-24.716 3.4214-18.001 3.4101-37.146-2.2469-48.299-4.9849-9.8278-11.763-18.975-21.679-24.961-10.316-6.2279-21.756-10.452-36.171-10.857-9.2596-0.26-31.513 5.1357-42.935 18.939-1.5764 1.905-2.9855 3.947-4.2504 6.0916-0.53246-0.03852-1.0746-0.05788-1.6252-0.05788-11.458 0-20.388 10.097-20.746 23.287-0.25677 9.4592 3.36 17.759 9.8506 21.525-0.87115 5.0772-1.7518 9.3937-2.9993 12.402-5.2631 12.691 1.168 15.878 6.7675 19.438 3.5563 2.2605 4.0899 5.0094 0.74156 17.635-16.092 60.68-1.7183 103.92 56.042 103.8m-48.017-15c-2.8803-2.6114-22.783 8.2834-15.284 15.025 4.6039 4.1388 6.9956-0.19235 11.462-3.1822 2.939-1.9673-6.0722 4.1961-0.64083 4.852 12.17 1.4697 32.214-2.9325 32.107-3.7913m-26.428-196.42c-0.13016-1.0413 16.011 5.5221 17.302 18.09 0.55334 5.3892-0.73905 12.782-4.2329 18.432-7.1466 10.756-14.871 11.707-27.192 8.7417"/>
    <path d="m120.78 52.897c1.0907-2.1224 6.1615-7.4039 12.527-9.5616 19.968-6.7684 24.428-19.987 26.264-11.156 2.7749 13.348-22.701 34.824-22.701 34.824"/>
    <path d="m30.393 62.024s7.9902-2.0133 0.27505-10.039c-4.1299-4.2963 15.54 1.2377 15.54 1.2377"/>
  </g></g>
</svg>
